<?xml version="1.0" encoding="UTF-8" standalone="no"?><!-- Generator: Gravitdesign.com --><svg xmlns="http://www.w3.org/2000/svg" xmlns:xlink="http://www.w3.org/1999/xlink" style="isolation:isolate" viewBox="0 0 3000 3000" width="3000pt" height="3000pt"><defs><clipPath id="_clipPath_Ml6tDPWhsVlqKWqUedFzyRmUd7e2SSpx"><rect width="3000" height="3000"/></clipPath></defs><g clip-path="url(#_clipPath_Ml6tDPWhsVlqKWqUedFzyRmUd7e2SSpx)"><g style="isolation:isolate"><line x1="1500" y1="1863.75" x2="1500" y2="3000" vector-effect="non-scaling-stroke" stroke-width="32" stroke="rgb(0,0,0)" stroke-linejoin="round" stroke-linecap="round" stroke-miterlimit="3"/><path d=" M 1504.867 16.009 C 1505.57 16.001 1506.274 16 1506.978 16 C 2016.879 16 2430.853 429.975 2430.853 939.875 C 2430.853 1449.775 2016.879 1863.75 1506.978 1863.75 C 1503.297 1863.75 1503.675 1863.775 1500 1863.75" fill="none" vector-effect="non-scaling-stroke" stroke-width="32" stroke="rgb(0,0,0)" stroke-linejoin="round" stroke-linecap="round" stroke-miterlimit="3"/><mask id="_mask_LejFnHGqjAoZ4az3vL5uWiUT54x5SyZl"><circle vector-effect="non-scaling-stroke" cx="1500" cy="1500" r="1500" fill="white" stroke="none"/></mask><circle vector-effect="non-scaling-stroke" cx="1500" cy="1500" r="1500" fill="none"/><circle vector-effect="non-scaling-stroke" cx="1500" cy="1500" r="1500" fill="none" mask="url(#_mask_LejFnHGqjAoZ4az3vL5uWiUT54x5SyZl)" stroke-width="64" stroke="rgb(0,0,0)" stroke-linejoin="miter" stroke-linecap="square" stroke-miterlimit="3"/></g><g style="isolation:isolate"><circle vector-effect="non-scaling-stroke" cx="1731.0000000000002" cy="938" r="100" fill="rgb(0,0,0)"/><circle vector-effect="non-scaling-stroke" cx="2237" cy="938" r="100" fill="rgb(0,0,0)"/><path d="M 2237 1900 L 2237 1900 C 2292.192 1900 2337 1944.808 2337 2000 L 2337 2200 C 2337 2255.192 2292.192 2300 2237 2300 L 2237 2300 C 2181.808 2300 2137 2255.192 2137 2200 L 2137 2000 C 2137 1944.808 2181.808 1900 2237 1900 Z" style="stroke:none;fill:#FFFFFF;stroke-miterlimit:10;"/><path d="M 1731 1900 L 1731 1900 C 1786.192 1900 1831 1944.808 1831 2000 L 1831 2200 C 1831 2255.192 1786.192 2300 1731 2300 L 1731 2300 C 1675.808 2300 1631 2255.192 1631 2200 L 1631 2000 C 1631 1944.808 1675.808 1900 1731 1900 Z" style="stroke:none;fill:#FFFFFF;stroke-miterlimit:10;"/></g></g></svg>